<?xml version="1.0" encoding="UTF-8"?>
<svg width="117px" height="31px" viewBox="0 0 117 31" version="1.1" xmlns="http://www.w3.org/2000/svg" xmlns:xlink="http://www.w3.org/1999/xlink">
    <title>logo-puro</title>
    <defs>
        <polygon id="path-1" points="0 0 117 0 117 30.3108808 0 30.3108808"></polygon>
    </defs>
    <g id="Page-1" stroke="none" stroke-width="1" fill="none" fill-rule="evenodd">
        <g id="Artboard" transform="translate(-129, -183)">
            <g id="logo-puro" transform="translate(129, 183)">
                <mask id="mask-2" fill="white">
                    <use xlink:href="#path-1"></use>
                </mask>
                <g id="Clip-2"></g>
                <path d="M21.3808264,18.2271215 C22.548995,16.3866773 23.161495,14.1595365 23.161495,11.752886 C23.161495,9.34639178 22.548995,7.11893828 21.3808264,5.27865044 L21.3808264,18.2271215 Z M17.8173033,21.6346797 C18.4678992,21.2600234 19.0622881,20.8264166 19.5990648,20.3408959 L19.5990648,3.16487602 C19.0622881,2.67935527 18.4678992,2.24574849 17.8173033,1.87109222 L17.8173033,21.6346797 Z M14.2537802,22.9514495 C14.8783023,22.8263556 15.4723789,22.6606062 16.0355417,22.4573285 L16.0355417,1.04844337 C15.4723789,0.845165756 14.8783023,0.67941632 14.2537802,0.554322406 L14.2537802,22.9514495 Z M10.6904132,0.273017467 L10.6904132,23.2327544 L11.3427265,23.2327544 C11.728525,23.2327544 12.1035506,23.2160231 12.4721747,23.1897534 L12.4721747,0.3160185 C12.1035506,0.289748778 11.728525,0.273017467 11.3427265,0.273017467 L10.6904132,0.273017467 Z M7.12689008,0.273017467 L7.12689008,30.01347 L7.12735847,30.01347 L8.90865163,30.01347 L8.90865163,0.273017467 L7.12735847,0.273017467 L7.12689008,0.273017467 Z M3.56383537,30.01347 L5.34559692,30.01347 L5.34559692,0.273017467 L3.56383537,0.273017467 L3.56383537,30.01347 Z M0,30.01347 L1.78176155,30.01347 L1.78176155,0.273017467 L0,0.273017467 L0,30.01347 Z M115.218238,7.72970931 C114.716123,6.78493753 114.117674,5.91162564 113.436477,5.11806112 L113.436477,25.1684264 C114.117674,24.3748619 114.716123,23.50155 115.218238,22.5567782 L115.218238,22.5566218 C116.355025,20.4176723 117,17.9137612 117,15.1432438 C117,12.3727263 116.355025,9.86881524 115.218238,7.72970931 L115.218238,7.72970931 Z M108.091348,29.0654145 C109.387076,28.5139068 110.584753,27.7882057 111.654871,26.9103591 L111.654871,3.37612837 C110.584753,2.49828183 109.387076,1.77273713 108.091348,1.22107297 L108.091348,29.0654145 Z M102.74622,30.2864875 C103.979651,30.2211259 105.173269,30.0205066 106.309587,29.6954188 L106.309587,0.591068744 C105.173269,0.265980935 103.979651,0.0655179375 102.74622,0 L102.74622,30.2864875 Z M97.4009352,29.6954188 C98.5372531,30.0205066 99.730871,30.2209696 100.964458,30.2864875 L100.964458,0 C99.730871,0.0655179375 98.5372531,0.265980935 97.4009352,0.591068744 L97.4009352,29.6954188 Z M92.056275,26.9106719 C93.1262375,27.7883621 94.3237587,28.5139068 95.6193298,29.0654145 L95.6193298,1.22107297 C94.3237587,1.77258076 93.1262375,2.49812546 92.056275,3.37581564 L92.056275,26.9106719 Z M90.2742012,25.1684264 L90.2742012,5.11806112 C88.0505903,7.70828698 86.7106781,11.1489951 86.7106781,15.1432438 C86.7106781,19.1374924 88.0505903,22.5782005 90.2742012,25.1684264 L90.2742012,25.1684264 Z M73.0512869,0.273017467 L59.3909588,0.273017467 L59.3909588,2.02245585 L78.8243692,2.02245585 C77.2582239,0.923193085 75.2808308,0.273173835 73.0512869,0.273017467 L73.0512869,0.273017467 Z M80.680605,3.77189424 L59.3909588,3.77189424 L59.3909588,5.52133263 L81.7546269,5.52133263 C81.4668783,4.89633216 81.1068413,4.30979807 80.680605,3.77189424 L80.680605,3.77189424 Z M82.3429267,7.27077102 L59.3909588,7.27077102 L59.3909588,9.0202094 L82.549019,9.0202094 C82.5374653,8.42054045 82.467675,7.83557004 82.3429267,7.27077102 L82.3429267,7.27077102 Z M82.4136538,10.7696478 L59.3909588,10.7696478 L59.3909588,12.5190862 L81.9106013,12.5190862 C82.1365221,11.9608546 82.3057676,11.3755714 82.4136538,10.7696478 L82.4136538,10.7696478 Z M80.9566438,14.2685246 L59.3909588,14.2685246 L59.3909588,16.017963 L79.3286708,16.017963 C79.9524122,15.5063288 80.4990252,14.9180747 80.9566438,14.2685246 L80.9566438,14.2685246 Z M76.3604734,17.7674013 L59.3909588,17.7674013 L59.3909588,19.5168397 L77.4997578,19.5168397 L76.3604734,17.7674013 Z M78.6388861,21.2662781 L68.3283385,21.2662781 L69.3917435,23.0157165 L79.7781706,23.0157165 L78.6388861,21.2662781 Z M59.3909588,23.0157165 L68.2996105,23.0157165 L68.2996105,21.2662781 L59.3909588,21.2662781 L59.3909588,23.0157165 Z M80.9172989,24.7651549 L70.4549924,24.7651549 L71.5182412,26.5145933 L82.0565833,26.5145933 L80.9172989,24.7651549 Z M59.3909588,26.5145933 L68.2996105,26.5145933 L68.2996105,24.7651549 L59.3909588,24.7651549 L59.3909588,26.5145933 Z M83.1957116,28.2640317 L72.5814901,28.2640317 L73.644739,30.01347 L84.3349961,30.01347 L83.1957116,28.2640317 Z M59.3909588,30.01347 L68.2996105,30.01347 L68.2996105,28.2640317 L59.3909588,28.2640317 L59.3909588,30.01347 Z M43.3554171,0.273173835 L52.8579893,0.273173835 L52.8579893,18.8310123 C52.8579893,26.504273 47.5128608,30.3108808 40.9797351,30.3108808 C34.4467655,30.3108808 29.101637,26.504273 29.101637,18.8310123 L29.101637,0.273173835 L38.6042091,0.273173835 L38.6042091,18.8310123 C38.6042091,20.3182226 39.6732348,21.210455 40.9797351,21.210455 C42.2863914,21.210455 43.3554171,20.3182226 43.3554171,18.8310123 L43.3554171,0.273173835 Z" id="Fill-1" fill="#000000" mask="url(#mask-2)"></path>
            </g>
        </g>
    </g>
</svg>