<svg xmlns="http://www.w3.org/2000/svg" viewBox="0 0 212.02 244.84"><defs><style>.a{fill:#008ea8;}.b,.c,.d{fill-rule:evenodd;}.c{fill:#bf151b;}.d{fill:#231f20;}</style></defs><title>logo</title><path class="a" d="M197.4,140.4a25.59,25.59,0,1,1-51.18,0H131.6a25.59,25.59,0,1,1-51.18,0H65.8A25.62,25.62,0,0,1,40.21,166h0A25.62,25.62,0,0,1,14.62,140.4H0a40.19,40.19,0,0,0,73.11,23.08,40.15,40.15,0,0,0,65.8,0A40.19,40.19,0,0,0,212,140.4Z"/><path class="a" d="M197.4,12.22a25.59,25.59,0,1,1-51.18,0H131.6a25.59,25.59,0,1,1-51.18,0H65.8A25.62,25.62,0,0,1,40.21,37.81h0A25.62,25.62,0,0,1,14.62,12.22H0A40.19,40.19,0,0,0,73.11,35.3a40.16,40.16,0,0,0,65.8,0A40.19,40.19,0,0,0,212,12.22Z"/><path class="a" d="M197.4,76.62a25.59,25.59,0,1,1-51.18,0H131.6a25.59,25.59,0,1,1-51.18,0H65.8a25.62,25.62,0,0,1-25.59,25.59h0A25.62,25.62,0,0,1,14.62,76.62H0A40.19,40.19,0,0,0,73.11,99.7a40.15,40.15,0,0,0,65.8,0A40.19,40.19,0,0,0,212,76.62Z"/><path class="a" d="M197.4,204.63a25.59,25.59,0,1,1-51.18,0H131.6a25.59,25.59,0,1,1-51.18,0H65.8a25.59,25.59,0,1,1-51.18,0H0a40.19,40.19,0,0,0,73.11,23.08,40.15,40.15,0,0,0,65.8,0A40.19,40.19,0,0,0,212,204.63Z"/><path class="b" d="M165.91,204.47a26.24,26.24,0,0,1-2.78-4.5c-1.7-4.56,1.08-8.83,6.23-9.46a13.76,13.76,0,0,1,5.85.58c5.16,1.73,6.57,7.6,3,11.71a10.92,10.92,0,0,0-1.16,1.44c4.93-1.92,8.66-1.23,10.78,2.05s1.54,8.62-1,11.13c-3,3-7.73,2.72-12.44-.64-1.14,1.73-.93,2.62,2.25,9.1h-9.15c1.62-2.8,3.62-5.5,2.09-9.25-2.47,2.38-5.31,3.56-8.48,2.69a11,11,0,0,1-4.58-2.64c-2.48-2.43-2.64-7.78-.62-10.63C158.11,202.92,161.07,202.46,165.91,204.47Z"/><path class="c" d="M40.18,32.33c-4.36-4.54-8.76-8.85-12.84-13.45-2.71-3.06-4.54-6.68-4-11C23.94,3.65,27.1.5,30.92.33c4.7-.21,7.8,2.19,8.8,6.8a4.18,4.18,0,0,0,.72,1.78c.12-.52.28-1,.36-1.57C41.48,3.09,45.13-.21,48.94,0a8.66,8.66,0,0,1,8.2,8.35c.2,4.61-2,8.29-4.89,11.49C48.37,24.08,44.28,28.11,40.18,32.33Z"/><path class="d" d="M171.54,59.68c3.46,3.48,6.83,6.93,10.26,10.3,2.75,2.7,5.17,5.54,5.91,9.5A8.78,8.78,0,0,1,184,88.59c-2.94,1.89-6,1.64-9.19-.75a5.81,5.81,0,0,0-.76-.38c-.94,3.64.78,6.37,2.71,9.26h-9.51c1.84-2.75,3.42-5.57,2.33-9a23.49,23.49,0,0,1-4.35,1.72c-5.8,1-10.36-3.8-9.35-9.64a14.52,14.52,0,0,1,3.89-7.61c3.27-3.47,6.63-6.86,9.92-10.31C170.42,61.16,171.05,60.27,171.54,59.68Z"/><path class="c" d="M40.17,160.73,24.06,141.56,40.17,122l16.19,19.52Z"/></svg>