<svg xmlns="http://www.w3.org/2000/svg" width="680" height="260" viewBox="0 0 680 260" role="img" aria-labelledby="title desc">
  <title id="title">Muzeum Kart do Gry Ulica Brydżowa</title>
  <desc id="desc">Znak tekstowy Muzeum Kart do Gry Ulica Brydżowa z motywem kart.</desc>
  <rect width="680" height="260" rx="24" fill="#ffffff"/>
  <g transform="translate(54 42)">
    <rect x="28" y="8" width="88" height="124" rx="12" fill="#2396ad" opacity="0.16" stroke="#2396ad" stroke-width="5"/>
    <rect x="0" y="34" width="88" height="124" rx="12" fill="#ffffff" stroke="#c91f26" stroke-width="5"/>
    <text x="16" y="74" font-family="Georgia, serif" font-size="34" font-weight="700" fill="#c91f26">A</text>
    <path d="M44 94c-17-18-43 7-18 30 8 8 18 14 18 14s10-6 18-14c25-23-1-48-18-30z" fill="#c91f26"/>
    <path d="M101 48c10 0 18 8 18 18 0 16-18 34-18 34S83 82 83 66c0-10 8-18 18-18z" fill="#232323"/>
    <path d="M92 115h18l-9-20z" fill="#232323"/>
  </g>
  <g transform="translate(205 58)">
    <text x="0" y="34" font-family="Arial, Helvetica, sans-serif" font-size="31" font-weight="800" fill="#232323">MUZEUM KART</text>
    <text x="0" y="75" font-family="Arial, Helvetica, sans-serif" font-size="24" font-weight="700" fill="#2396ad">DO GRY</text>
    <rect x="0" y="93" width="330" height="4" fill="#c91f26" rx="2"/>
    <text x="0" y="135" font-family="Arial, Helvetica, sans-serif" font-size="30" font-weight="800" fill="#232323">ULICA BRYDŻOWA</text>
  </g>
</svg>
