<?xml version="1.0" encoding="UTF-8"?>
<svg xmlns="http://www.w3.org/2000/svg" width="144" height="56" viewBox="0 0 144 56" fill="none">
  <g clip-path="url(#clip0_92_17)">
    <mask id="mask0_92_17" style="mask-type:luminance" maskUnits="userSpaceOnUse" x="0" y="0" width="144" height="56">
      <path d="M143.287 0H0.712891V56H143.287V0Z" fill="white"></path>
    </mask>
    <g mask="url(#mask0_92_17)">
      <path d="M91.7691 40.1452C90.1585 41.0099 88.9638 42.1782 85.8318 42.3993C84.581 42.4884 84.6734 42.4686 84.8186 41.5809C85.2773 38.8053 82.0694 38.4653 80.3037 40.5544C77.472 43.9043 80.3268 46.8317 83.1948 44.3927C84.0562 43.6601 83.8054 43.396 84.779 43.4455C91.1684 43.6106 94.2773 38.802 91.7691 40.1452ZM82.6932 43.3168C81.0958 45.0792 79.3895 44.1386 80.7757 41.6535C80.9242 41.3861 81.1651 41.1683 81.2113 41.0957C81.2113 41.0858 81.2047 41.0792 81.2047 41.0693C81.2245 41.0693 81.2245 41.0759 81.2113 41.0957C81.5909 42.4521 82.0364 42.3201 82.9044 42.9802C82.9506 43.0759 82.6965 43.3168 82.6932 43.3168ZM83.3202 42.0033C81.4786 41.1353 82.8945 40.0198 83.4885 40.4521C83.7691 40.6568 83.8384 42.2112 83.3202 42.0033Z" fill="#17375A"></path>
      <path d="M77.7954 39.4257C75.5182 40.066 77.3466 39.6172 74.9605 38.6964C73.3994 38.0957 72.8416 38.4455 71.5281 38.9703C70.0793 39.5479 70.8746 38.9604 70.2641 40.7987C68.9605 44.7261 66.2179 50.3036 66.3664 54.3102C66.538 56.5281 68.2674 56.3201 69.307 55.0891C71.8284 51.835 71.8977 44.9835 71.802 40.967C71.7723 39.7954 73.3961 39.1518 74.4951 39.6799C75.0298 39.9373 75.5017 40.2112 74.9803 40.5908C70.5941 43.7624 73.7063 45.868 75.3598 44.5743C76.5578 43.6337 76.571 42.3828 76.8416 41.165C76.9737 40.5776 78.6733 40.3663 79.1816 40.3168C79.8548 40.2508 81.6667 40.5809 81.9176 40.1452C82.736 38.7162 78.3004 39.2838 77.7954 39.4257ZM69.4456 52.066C69.4258 52.1287 68.307 55.6172 67.7228 54.7591C67.0067 53.165 68.7756 48.3432 69.3796 46.6733C69.5248 46.2739 70.5248 43.198 70.5809 43.099C71.0067 45.33 70.1288 49.8515 69.4456 52.066ZM74.0925 43.6931C74.0958 42.3366 75.5116 41.6997 75.5314 41.7591C75.7393 42.363 74.1882 44.6172 74.0925 43.6931Z" fill="#17375A"></path>
      <path d="M70.33 39.0858C68.3135 40.3201 66.2541 41.4191 63.7954 41.132C63.165 41.0594 64.4225 39.6337 63.2838 38.5116C62.1221 37.363 60.3663 38.2079 59.3696 39.0957C58.0891 40.3531 57.2838 43.3267 59.297 43.8944C60.6832 44.0924 61.2739 43.9373 62.3135 42.9472C63.0462 42.2508 62.7822 42.1485 63.67 42.1947C65.1914 42.2739 66.5281 42.1056 67.9637 41.5776C72.9109 39.7558 72.0033 38.0561 70.33 39.0825V39.0858ZM60.1353 42.9703C60.033 42.9736 59.8812 42.9901 59.7756 42.9637C58.6898 42.6898 59.3465 40.9571 59.7096 40.3267C59.868 40.0528 60.0594 39.9109 60.1023 39.8515C60.1023 39.8416 60.0957 39.8317 60.0924 39.8185C60.1122 39.8185 60.1155 39.8317 60.1023 39.8515C60.4357 41.033 60.8251 41.099 61.7327 41.6898C62.0726 41.9109 60.769 42.8548 60.132 42.9703H60.1353ZM62.1617 40.7294C60.4225 39.8614 61.8284 38.3927 62.5875 39.5248C62.5974 39.7558 62.7195 41.0099 62.1617 40.7294Z" fill="#17375A"></path>
      <path d="M60.8119 38.2508C60.1683 37.7063 56.1881 39.2046 55.3697 39.4587C55.0198 39.5677 54.3367 38.9208 54.5875 38.604C57.4027 35.0957 54.2146 33.6535 52.7459 35.0132C52.5974 35.1815 52.5314 35.2475 52.4225 35.4455C51.8878 36.4356 51.9769 37.0957 52.505 37.9571C52.6469 38.1914 52.8086 38.429 52.9736 38.6601C50.1254 41.4752 45.2443 41.6106 41.1023 41.7228C40.9571 41.7261 40.8383 41.7294 40.0792 41.7558C39.7921 41.7657 39.5644 42.0066 39.5743 42.2937C39.5842 42.5809 39.8251 42.8086 40.1122 42.7987L41.132 42.7723C45.4291 42.6535 50.4852 42.5149 53.6106 39.5083C53.8317 39.7954 54.0066 40.0198 54.0726 40.132C54.1386 40.2442 52.5314 41.5545 52.2641 41.8416C49.5512 44.7426 51.0957 47.1386 54.0363 45.9901C57.4423 44.6568 55.9967 41.1056 56.1947 40.6634C56.4786 40.0297 59.406 39.3795 60.0759 39.3366C60.7756 39.2904 61.3796 38.736 60.8119 38.2574V38.2508ZM53.6997 37.8218C53.5677 37.5776 53.2872 36.8812 53.2542 36.6997C53.2211 36.2541 53.5644 35.5578 54.0957 35.6799C55.1914 35.9373 54.0957 37.2805 53.6997 37.8218ZM52.033 44.868C52.0066 44.6733 52.033 44.4158 52.0726 44.2277C52.241 43.4059 54.6601 40.4984 55.0264 41.5842C55.9901 44.4356 52.307 45.9043 52.033 44.868Z" fill="#17375A"></path>
      <path d="M97.0066 34.3432C97.0363 34.297 100.396 33.8878 100.838 33.802C101.548 33.6634 104.218 33.3729 104.426 32.67C104.446 32.3267 104.244 32.1254 103.828 32.066L103.574 32.0495C102.274 32.3465 98.8317 33.1815 97.5445 33.099C97.1881 33.0759 99.736 29.33 98.4455 28.4653C96.7459 27.3234 94.4026 32.7459 93.4356 33.3597C93.2013 33.5082 90.934 33.4158 90.7294 33.3927C89.3729 33.2376 89.3432 34.3135 90.9802 34.4158C93.7195 34.528 93.2541 34.0792 92.462 35.9307C91.9868 37.0429 91.4917 39.3036 91.5181 40.5082C91.6106 45.2145 95.3003 47.0594 99.5643 46.3894C99.8812 46.3399 100.148 46.2475 100.389 46.2079C101.129 46.0891 101.376 45.8383 101.578 45.429C101.785 45 101.165 44.6436 100.479 44.9868C98.0891 46.1782 93.0759 45.1683 92.8911 41.165C92.8779 40.9109 93.1188 40.6799 93.2871 40.4389C94.7063 38.4158 95.6865 36.3795 97.0099 34.3399L97.0066 34.3432ZM96.3498 31.1914C96.5148 30.967 97.4686 29.8581 97.5247 29.7096C97.5247 29.6997 97.5247 29.6931 97.5247 29.6931C97.528 29.6931 97.5313 29.6997 97.5247 29.7096C97.5049 29.8251 97.198 30.604 97.1419 30.7525C97.0693 30.9472 96.2508 32.7657 96.3036 32.8119C96.1617 33.2244 95.7624 33.0891 95.3366 33.0627C95 33.0396 96.2343 31.3498 96.3498 31.1914ZM92.8053 39.165C92.8053 39.165 92.802 39.1353 92.8152 39.0726C93.0066 38.1551 93.264 37.2409 93.8251 35.9571C93.9241 35.7393 94.0132 35.5281 94.1089 35.3069C94.3168 34.8251 94.8548 34.0594 95.4818 34.5214C95.2211 35.5512 93.8251 37.6766 93.1749 38.5743C92.967 38.8614 92.8317 39.1683 92.8086 39.165H92.8053Z" fill="#17375A"></path>
      <path d="M0.712891 30.1287L10.1089 0.653465H20.9604L22.6073 13.0957C22.6172 13.3696 22.6304 13.8053 22.6469 14.4059C22.6601 15.0066 22.6535 15.5809 22.6205 16.1254L22.4588 17.1485L23.066 14.8548C23.3136 13.9802 23.5149 13.396 23.67 13.0957L29.1947 0.653465H40.0198L40.0495 30.1254H29.406L30.2673 18.7459C30.3466 18.2541 30.4192 17.7855 30.4918 17.3333C30.5644 16.8845 30.6337 16.4389 30.703 16.0033C30.7459 15.7294 30.7789 15.5248 30.7987 15.3894L31.1749 13.0165L30.9274 13.835L30.3532 15.4719L29.3367 18.4191L29.297 18.6634L24.198 30.1254H16.5644L15.1386 18.6634L15.1221 18.4984L15.0264 15.4686L14.9736 14.2409L14.9208 13.0132L14.8416 14.0363C14.7426 14.6634 14.6469 15.2574 14.5611 15.8185C14.472 16.3795 14.4027 16.9043 14.3532 17.396C14.307 17.6964 14.2574 17.9967 14.2112 18.297C14.1221 18.5149 14.0726 18.6667 14.0594 18.7459L11.3565 30.1254H0.712891V30.1287Z" fill="#65D3BD"></path>
      <path d="M42.8384 15.3696C43.5348 10.9835 45.6338 7.32343 49.142 4.39274C52.647 1.46205 56.7889 -0.00329971 61.5645 -0.00329971C63.8285 -0.00329971 65.9638 0.39274 67.9671 1.18152C70.7691 2.27063 72.845 4.11221 74.1948 6.69967C75.5447 9.29043 75.9671 12.1782 75.4622 15.3663C75.1354 17.4389 74.4061 19.4422 73.2807 21.3762C72.1552 23.3102 70.7493 24.9802 69.0694 26.3828C67.3863 27.7855 65.5216 28.8416 63.4721 29.5512C60.9902 30.396 58.6173 30.8185 56.3533 30.8185C51.9044 30.8185 48.3665 29.3399 45.7361 26.3828C43.1057 23.4257 42.1387 19.7525 42.8351 15.3663L42.8384 15.3696ZM56.0661 20.5083C56.7526 20.835 57.4886 21 58.2807 21C59.4259 21 60.5216 20.6799 61.5645 20.0396C62.6074 19.3993 63.4193 18.5446 63.9968 17.4818C64.3467 16.8284 64.5777 16.132 64.6965 15.3927C64.8813 14.2211 64.7592 13.1815 64.3302 12.2805C63.9011 11.3795 63.2014 10.7129 62.2311 10.2739C61.4919 9.9472 60.7394 9.78218 59.977 9.78218C58.8582 9.78218 57.7757 10.1023 56.7328 10.7426C55.6899 11.3828 54.878 12.2376 54.3005 13.3003C53.9275 13.9274 53.68 14.6238 53.5612 15.3894C53.3797 16.5347 53.515 17.5644 53.9737 18.4785C54.4292 19.3927 55.1255 20.0693 56.0694 20.505L56.0661 20.5083Z" fill="#65D3BD"></path>
      <path d="M75.165 27.3201L79.406 18.6271C79.7327 18.9835 79.9901 19.2409 80.1848 19.4059C80.3763 19.571 80.8383 19.9241 81.571 20.4719C83.033 21.3993 84.0891 21.9307 84.736 22.0693C85.3829 22.2079 85.9373 22.2739 86.4027 22.2739C87.1386 22.2739 87.6964 22.1188 88.0726 21.802C88.4489 21.4884 88.67 21.1419 88.7294 20.7591C88.7987 20.3234 88.6601 19.9967 88.3103 19.7756C88.1651 19.6667 87.9604 19.571 87.6997 19.4884C87.439 19.4059 87.0462 19.3102 86.5182 19.2013L85.7327 18.9967L84.7129 18.7096L83.8911 18.4653C81.9208 17.8119 80.472 16.7855 79.5479 15.396C78.6205 14.0033 78.3004 12.4092 78.5875 10.6073C78.7426 9.62376 79.0759 8.63696 79.5908 7.64026C80.1023 6.64356 80.8218 5.64026 81.7459 4.63036C83.0264 3.26733 84.5809 2.19472 86.4093 1.41584C88.2377 0.636963 90.231 0.247524 92.3862 0.247524C93.4225 0.247524 94.4192 0.330033 95.3763 0.491749C96.3334 0.656765 97.3829 0.950495 98.5314 1.37294C99.6799 1.79538 100.753 2.37624 101.756 3.11221L98.1684 10.7657L97.4324 10.2343C96.4258 9.52475 95.4885 9.0132 94.6271 8.69967C93.7624 8.38614 92.9769 8.22772 92.2674 8.22772C91.3928 8.22772 90.7327 8.44554 90.2806 8.88119C89.9868 9.18152 89.8185 9.46865 89.7756 9.73927C89.7162 10.1221 89.8614 10.3927 90.2211 10.5578C90.5182 10.7492 91.0462 10.9406 91.8086 11.1287L93.4489 11.6172L93.9208 11.7393L94.7822 11.9835L95.7195 12.2706C97.406 12.8152 98.6535 13.7426 99.4555 15.0495C100.257 16.3564 100.518 17.9109 100.231 19.7063C100.089 20.604 99.7822 21.5875 99.3136 22.6469C98.2476 25.0726 96.4885 27.0396 94.0396 28.5512C91.5908 30.0627 88.8515 30.8185 85.8218 30.8185C83.6931 30.8185 81.5215 30.396 79.307 29.5545C77.8152 28.9835 76.4324 28.2376 75.1584 27.3135L75.165 27.3201Z" fill="#65D3BD"></path>
      <path d="M101 30.1287L105.67 0.653465H116.558L111.891 30.1254H101.003L101 30.1287Z" fill="#65D3BD"></path>
      <path d="M114.835 30.1287L119.505 0.653465H135.102C138.158 0.653465 140.284 1.19802 141.475 2.29043C142.667 3.38284 143.271 5.25083 143.287 7.89769C143.297 8.52475 143.244 9.19472 143.132 9.90429C142.822 11.868 142.066 13.5677 140.871 15C139.677 16.4323 138.218 17.4092 136.498 17.9274L142.917 30.1254H130.188L127.152 21.1188L125.726 30.1254H114.838L114.835 30.1287ZM129.931 13.9175C130.614 13.9175 131.205 13.7558 131.706 13.429C132.208 13.1056 132.551 12.703 132.736 12.231C132.921 11.7558 133.04 11.3564 133.089 11.033C133.36 9.32673 132.525 8.47195 130.587 8.47195H129.155L128.294 13.9175H129.931Z" fill="#65D3BD"></path>
    </g>
  </g>
  <defs>
    <clipPath id="clip0_92_17">
      <rect width="144" height="56" fill="white"></rect>
    </clipPath>
  </defs>
</svg>
