<?xml version="1.0" encoding="UTF-8"?>
<svg id="Layer_1" data-name="Layer 1" xmlns="http://www.w3.org/2000/svg" width="114mm" height="142mm" viewBox="0 0 323.15 402.52">
  <path d="M0,322.54v-25.53h9.52c5.91,0,9.08,3.1,9.08,7.88v.04c0,4.89-3.32,7.99-9.12,7.99H3.65v9.63H0ZM9.27,309.74c3.65,0,5.58-1.86,5.58-4.78v-.04c0-2.85-1.97-4.78-5.58-4.78H3.65v9.59h5.62ZM27.99,322.94c-3.47,0-6.82-1.86-6.82-5.69v-.04c0-4.12,3.61-5.4,8.86-6.24l4.01-.66v-.36c0-2.85-1.64-3.98-4.27-3.98s-4.23,1.24-4.67,3.5h-3.36c.51-3.87,3.9-6.27,8.13-6.27s7.55,1.75,7.51,6.86l-.07,8.54c0,.58.04,1.46.18,3.94h-3.21l-.04-2.85c-1.17,1.97-3.25,3.25-6.27,3.25ZM24.56,317.11c0,1.97,1.75,3.03,4.05,3.03,3.03,0,5.44-1.93,5.44-5.51v-1.57c-6.68.84-9.48,1.53-9.48,4.01v.04ZM48.84,322.58c-2.95,0-4.89-.91-4.89-4.82v-11.27h-3.36v-2.85h3.36v-4.52h3.36v4.52h4.82v2.85h-4.82v10.72c0,2.08.73,2.48,2.37,2.48h2.44v2.81c-1.31.07-1.9.07-3.28.07ZM56.12,322.54v-18.9h3.39v3.06c1.35-2.19,2.92-3.21,5.44-3.21.44,0,.84.04,1.24.11v3.36c-.91-.07-1.28-.07-1.71-.07-2.08,0-4.92.91-4.92,4.92v10.72h-3.43ZM77.45,322.94c-5.33,0-9.37-3.87-9.37-9.96v-.04c0-5.84,4.05-9.74,9.37-9.74s9.37,3.83,9.37,9.74v.04c0,6.02-4.05,9.96-9.37,9.96ZM77.45,319.92c3.57,0,5.87-2.77,5.87-6.93v-.04c0-3.94-2.33-6.71-5.87-6.71s-5.87,2.77-5.87,6.71v.04c0,4.12,2.3,6.93,5.87,6.93ZM91.27,322.54v-18.9h3.39v2.63c1.17-1.9,3.17-3.06,5.84-3.06,4.16,0,6.86,2.59,6.86,7.51v11.82h-3.43v-11.38c0-3.14-1.71-4.96-4.49-4.96-2.52,0-4.74,1.93-4.74,5.8v10.54h-3.43ZM118.55,322.94c-3.47,0-6.82-1.86-6.82-5.69v-.04c0-4.12,3.61-5.4,8.86-6.24l4.01-.66v-.36c0-2.85-1.64-3.98-4.27-3.98s-4.23,1.24-4.67,3.5h-3.36c.51-3.87,3.9-6.27,8.13-6.27s7.55,1.75,7.51,6.86l-.07,8.54c0,.58.04,1.46.18,3.94h-3.21l-.04-2.85c-1.17,1.97-3.25,3.25-6.27,3.25ZM115.12,317.11c0,1.97,1.75,3.03,4.05,3.03,3.03,0,5.44-1.93,5.44-5.51v-1.57c-6.68.84-9.48,1.53-9.48,4.01v.04ZM139.41,322.58c-2.95,0-4.89-.91-4.89-4.82v-11.27h-3.36v-2.85h3.36v-4.52h3.36v4.52h4.82v2.85h-4.82v10.72c0,2.08.73,2.48,2.37,2.48h2.44v2.81c-1.31.07-1.9.07-3.28.07ZM156.98,322.54v-26.26h3.43v9.92c1.13-1.79,3.17-2.99,5.8-2.99,4.16,0,6.86,2.59,6.86,7.51v11.82h-3.43v-11.38c0-3.14-1.71-4.96-4.49-4.96-2.52,0-4.74,1.93-4.74,5.8v10.54h-3.43ZM186.63,322.94c-5.33,0-9.37-3.87-9.37-9.96v-.04c0-5.84,4.05-9.74,9.37-9.74s9.37,3.83,9.37,9.74v.04c0,6.02-4.05,9.96-9.37,9.96ZM186.63,319.92c3.57,0,5.87-2.77,5.87-6.93v-.04c0-3.94-2.33-6.71-5.87-6.71s-5.87,2.77-5.87,6.71v.04c0,4.12,2.3,6.93,5.87,6.93ZM200.45,322.54v-18.9h3.39v2.63c1.17-1.9,3.17-3.06,5.84-3.06,4.16,0,6.86,2.59,6.86,7.51v11.82h-3.43v-11.38c0-3.14-1.71-4.96-4.49-4.96-2.52,0-4.74,1.93-4.74,5.8v10.54h-3.43ZM230.11,322.94c-5.33,0-9.37-3.87-9.37-9.96v-.04c0-5.84,4.05-9.74,9.37-9.74s9.37,3.83,9.37,9.74v.04c0,6.02-4.05,9.96-9.37,9.96ZM230.11,319.92c3.57,0,5.87-2.77,5.87-6.93v-.04c0-3.94-2.33-6.71-5.87-6.71s-5.87,2.77-5.87,6.71v.04c0,4.12,2.3,6.93,5.87,6.93ZM243.93,322.54v-18.9h3.39v3.06c1.35-2.19,2.92-3.21,5.44-3.21.44,0,.84.04,1.24.11v3.36c-.91-.07-1.28-.07-1.71-.07-2.08,0-4.92.91-4.92,4.92v10.72h-3.43ZM265.25,322.94c-5.33,0-9.37-3.87-9.37-9.96v-.04c0-5.84,4.05-9.74,9.37-9.74s9.37,3.83,9.37,9.74v.04c0,6.02-4.05,9.96-9.37,9.96ZM265.25,319.92c3.57,0,5.87-2.77,5.87-6.93v-.04c0-3.94-2.33-6.71-5.87-6.71s-5.87,2.77-5.87,6.71v.04c0,4.12,2.3,6.93,5.87,6.93ZM282.4,322.54l-5.95-18.9h3.47l4.34,14.81,4.16-14.81h3.28l4.16,14.74,4.34-14.74h3.32l-5.95,18.9h-3.47l-4.12-14.41-4.12,14.41h-3.47ZM309.36,329.47l3.36-8.13-7.62-17.69h3.68l5.62,13.64,5.22-13.64h3.54l-10.29,25.83h-3.5ZM63.06,359.02v-25.53h9.52c5.91,0,9.08,3.1,9.08,7.88v.04c0,4.89-3.32,7.99-9.12,7.99h-5.84v9.63h-3.65ZM72.33,346.22c3.65,0,5.58-1.86,5.58-4.78v-.04c0-2.85-1.97-4.78-5.58-4.78h-5.62v9.59h5.62ZM85.72,359.02v-18.9h3.39v3.06c1.35-2.19,2.92-3.21,5.44-3.21.44,0,.84.04,1.24.11v3.36c-.91-.07-1.28-.07-1.71-.07-2.08,0-4.92.91-4.92,4.92v10.72h-3.43ZM107.04,359.42c-5.22,0-9.37-3.83-9.37-9.96v-.04c0-6.06,4.34-9.74,9.16-9.74s9.01,3.39,9.01,10.03v.84h-14.63c.29,3.54,2.74,5.95,5.95,5.95,2.23,0,4.09-.84,5.07-2.88h3.43c-1.13,3.98-4.78,5.8-8.61,5.8ZM112.26,347.79c-.18-3.14-2.48-5.22-5.51-5.22s-5.33,2.08-5.58,5.22h11.09ZM118.87,359.02v-3.17l11.2-12.8h-10.98v-2.92h14.92v3.17l-11.2,12.8h11.34v2.92h-15.28ZM140.43,365.95l3.36-8.13-7.62-17.69h3.68l5.62,13.64,5.22-13.64h3.54l-10.29,25.83h-3.5ZM164.59,359.42c-4.78,0-8.79-3.5-8.79-9.99v-.04c0-6.16,4.16-9.7,8.79-9.7,2.88,0,5.11,1.42,6.16,3.1v-10.03h3.43v26.26h-3.43v-2.95c-1.09,1.93-3.36,3.36-6.16,3.36ZM165.1,356.5c3.06,0,5.73-2.55,5.73-7.08v-.04c0-4.38-2.59-6.78-5.73-6.78-3.32,0-5.73,2.59-5.73,6.78v.04c0,4.41,2.41,7.08,5.73,7.08ZM188.01,359.42c-5.22,0-9.37-3.83-9.37-9.96v-.04c0-6.06,4.34-9.74,9.16-9.74s9.01,3.39,9.01,10.03v.84h-14.63c.29,3.54,2.74,5.95,5.95,5.95,2.23,0,4.09-.84,5.07-2.88h3.43c-1.13,3.98-4.78,5.8-8.61,5.8ZM193.23,347.79c-.18-3.14-2.48-5.22-5.51-5.22s-5.33,2.08-5.58,5.22h11.09ZM201.23,359.02v-18.9h3.39v2.63c1.17-1.9,3.17-3.06,5.84-3.06,4.16,0,6.86,2.59,6.86,7.51v11.82h-3.43v-11.38c0-3.14-1.71-4.96-4.49-4.96-2.52,0-4.74,1.93-4.74,5.8v10.54h-3.43ZM228.73,359.06c-2.95,0-4.89-.91-4.89-4.82v-11.27h-3.36v-2.85h3.36v-4.52h3.36v4.52h4.82v2.85h-4.82v10.72c0,2.08.73,2.48,2.37,2.48h2.44v2.81c-1.31.07-1.9.07-3.28.07ZM236.01,359.02v-26.26h3.39v15.98l8.57-8.61h4.49l-7,6.86,7.3,12.04h-4.01l-5.73-9.63-3.61,3.54v6.09h-3.39ZM256.22,359.02v-18.9h3.43v18.9h-3.43ZM257.93,336.73c-1.24,0-2.19-.95-2.19-2.15s.95-2.12,2.19-2.12,2.15.95,2.15,2.12-.95,2.15-2.15,2.15ZM39.67,395.59v-25.53h6.06l7.66,21.45,7.62-21.45h5.87v25.53h-3.5v-22.98l-8.24,22.98h-3.72l-8.24-22.87v22.87h-3.5ZM72.95,395.59v-18.9h3.43v18.9h-3.43ZM74.66,373.3c-1.24,0-2.19-.95-2.19-2.15s.95-2.12,2.19-2.12,2.15.95,2.15,2.12-.95,2.15-2.15,2.15ZM87.8,395.99c-3.47,0-6.82-1.86-6.82-5.69v-.04c0-4.12,3.61-5.4,8.86-6.24l4.01-.66v-.36c0-2.85-1.64-3.98-4.27-3.98s-4.23,1.24-4.67,3.5h-3.36c.51-3.87,3.9-6.27,8.13-6.27s7.55,1.75,7.51,6.86l-.07,8.54c0,.58.04,1.46.18,3.94h-3.21l-.04-2.85c-1.17,1.97-3.25,3.25-6.27,3.25ZM84.37,390.15c0,1.97,1.75,3.03,4.05,3.03,3.03,0,5.44-1.93,5.44-5.51v-1.57c-6.68.84-9.48,1.53-9.48,4.01v.04ZM109.49,396.03c-4.19,0-7.73-2.12-8.17-6.35h3.28c.4,2.41,2.44,3.5,4.96,3.5,2.12,0,4.19-.91,4.19-2.74v-.04c0-1.64-1.61-2.37-4.27-2.88l-1.93-.36c-3.57-.66-5.76-2.26-5.76-5.18v-.04c0-3.5,3.28-5.73,7.19-5.73s7.11,2.04,7.59,5.73h-3.25c-.47-1.9-2.15-2.88-4.45-2.88-2.12,0-3.83,1.02-3.83,2.63v.04c0,1.46,1.24,2.04,3.54,2.48l1.93.36c4.01.77,6.53,2.3,6.53,5.51v.04c0,3.79-3.65,5.91-7.55,5.91ZM127.36,395.63c-2.95,0-4.89-.91-4.89-4.82v-11.27h-3.36v-2.85h3.36v-4.52h3.36v4.52h4.82v2.85h-4.82v10.72c0,2.08.73,2.48,2.37,2.48h2.44v2.81c-1.31.07-1.9.07-3.28.07ZM140.16,395.99c-3.47,0-6.82-1.86-6.82-5.69v-.04c0-4.12,3.61-5.4,8.86-6.24l4.01-.66v-.36c0-2.85-1.64-3.98-4.27-3.98s-4.23,1.24-4.67,3.5h-3.36c.51-3.87,3.9-6.27,8.13-6.27s7.55,1.75,7.51,6.86l-.07,8.54c0,.58.04,1.46.18,3.94h-3.21l-.04-2.85c-1.17,1.97-3.25,3.25-6.27,3.25ZM136.73,390.15c0,1.97,1.75,3.03,4.05,3.03,3.03,0,5.44-1.93,5.44-5.51v-1.57c-6.68.84-9.48,1.53-9.48,4.01v.04ZM173.59,396.03c-5.51,0-9.81-2.77-10.29-8.35h3.61c.47,3.47,3.14,5.25,6.68,5.25,3.28,0,5.98-1.5,5.98-4.16v-.04c0-2.26-2.19-3.43-5.58-4.19l-2.74-.62c-4.67-1.06-7.15-3.21-7.15-6.93v-.04c0-4.38,4.12-7.44,9.19-7.44s9.01,2.81,9.48,7.66h-3.57c-.4-2.81-2.59-4.52-5.91-4.52-3.06,0-5.62,1.64-5.62,4.01v.04c0,2.12,1.5,3.06,4.56,3.76l3.1.69c4.74,1.06,7.88,3.17,7.88,7.22v.04c0,5.14-4.71,7.62-9.63,7.62ZM196.09,395.99c-5.33,0-9.37-3.87-9.37-9.96v-.04c0-5.84,4.05-9.74,9.37-9.74s9.37,3.83,9.37,9.74v.04c0,6.02-4.05,9.96-9.37,9.96ZM196.09,392.96c3.57,0,5.87-2.77,5.87-6.93v-.04c0-3.94-2.33-6.71-5.87-6.71s-5.87,2.77-5.87,6.71v.04c0,4.12,2.3,6.93,5.87,6.93ZM209.91,402.52v-25.83h3.43v2.77c.98-1.75,3.17-3.21,6.24-3.21,4.78,0,8.72,3.43,8.72,9.7v.04c0,6.46-4.05,9.99-8.79,9.99-2.88,0-5.11-1.5-6.16-3.28v9.81h-3.43ZM219.03,393.07c3.17,0,5.69-2.63,5.69-7.08v-.04c0-4.34-2.52-6.78-5.69-6.78s-5.76,2.48-5.76,6.78v.04c0,4.52,2.66,7.08,5.76,7.08ZM240.89,395.99c-5.33,0-9.37-3.87-9.37-9.96v-.04c0-5.84,4.05-9.74,9.37-9.74s9.37,3.83,9.37,9.74v.04c0,6.02-4.05,9.96-9.37,9.96ZM240.89,392.96c3.57,0,5.87-2.77,5.87-6.93v-.04c0-3.94-2.33-6.71-5.87-6.71s-5.87,2.77-5.87,6.71v.04c0,4.12,2.3,6.93,5.87,6.93ZM260.47,395.63c-2.95,0-4.89-.91-4.89-4.82v-11.27h-3.36v-2.85h3.36v-4.52h3.36v4.52h4.82v2.85h-4.82v10.72c0,2.08.73,2.48,2.37,2.48h2.44v2.81c-1.31.07-1.9.07-3.28.07ZM274.36,395.99c-4.05,0-6.86-2.52-6.86-7.37v-11.93h3.43v11.45c0,3.17,1.79,4.85,4.41,4.85,2.41,0,4.71-1.82,4.71-5.54v-10.76h3.43v18.9h-3.39v-2.55c-1.2,1.86-3.17,2.95-5.73,2.95Z" fill="#1637a2"/>
  <g>
    <path d="M232.66,50.08h-62.37v-3.44h62.37v3.44ZM90.42,46.63h62.69v3.44h-62.69v-3.44ZM90.43,21.56l8.47-.03v4.26h8.28l.02-4.26h8.43l.02,4.26h8.28v-4.26h8.42v4.26h8.26v-4.23s8.47-.03,8.47-.03v4.26h8.28l.02-4.26h8.43l.02,4.26h8.28v-4.26h8.42v4.26h8.21l.04-4.29h8.39v4.29h8.28l.02-4.29h8.43l.02,4.29h8.28v-4.26l8.47.03v5.81s-139.86,0-139.86,0h-2.37v-5.81ZM111,9.29v3.25s-14.96,0-14.96,0c0-1.54,0-2.75.01-3.22l.06-.02h14.89ZM92.81,7.36h37.25v1.17h-37.26v-1.17s0,0,0,0ZM90.41.8l8.47-.03v4.26h8.28l.02-4.26h8.43l.02,4.26h8.28V.77h8.42v5.84h-41.93V.8s.01,0,.01,0ZM126.82,12.54h-15.05v-3.25s15.04,0,15.04,0v3.25h0ZM126.82,16.77h-6.36v-3.48h6.36v3.48ZM123.17,21.52v3.51h-6.78l-.02-3.51h6.8ZM126.82,20.77h-15.05v-3.24h15.05v3.24ZM111,17.53v3.24h-14.92c0-1.01-.02-2.12-.02-3.24h14.95ZM119.7,13.29v3.48h-16.28v-3.48h16.28ZM96.04,13.29h6.6v3.48h-6.59c0-1.21-.01-2.4-.02-3.48h0ZM99.65,21.52h6.78v3.51h-6.78v-3.51ZM161.45,9.29v3.25h-14.97c0-1.54,0-2.75.01-3.22l.06-.02h14.9ZM143.26,7.36h37.25v1.17h-37.26v-1.17ZM140.87.8l8.47-.03v4.26h8.28l.02-4.26h8.43l.02,4.26h8.28V.77h8.42v5.84h-41.93V.8s.01,0,.01,0ZM177.26,12.54h-15.05v-3.25h15.05v3.25ZM177.26,16.77h-6.36v-3.48s6.35,0,6.35,0v3.48h0ZM173.35,21.52v3.51h-6.78l-.02-3.51h6.8ZM177.26,20.77h-15.05v-3.24h15.05v3.24ZM161.45,17.53v3.24h-14.92c0-1.01-.02-2.12-.02-3.24h14.95ZM170.14,13.29v3.48s-16.28,0-16.28,0v-3.48s16.28,0,16.28,0ZM146.49,13.29h6.6v3.48s-6.59,0-6.59,0c0-1.21-.01-2.4-.02-3.48ZM149.83,21.52h6.78v3.51h-6.78v-3.51ZM199.93,21.51h6.8l-.02,3.53h-6.78v-3.53ZM196.41,17.51h14.95v3.24h-14.92c0-1.01-.02-2.12-.02-3.24ZM211.36,9.28v3.25s-14.96,0-14.96,0c0-1.54,0-2.75.01-3.23l.05-.02h14.9,0ZM193.16,7.35h37.25v1.17h-37.26v-1.17ZM190.77.79l8.47-.03v4.26h8.28l.02-4.26h8.43l.02,4.26h8.28V.76h8.42v5.84h-41.93V.78s.01,0,.01,0ZM227.17,12.52h-15.05v-3.25s15.05,0,15.05,0v3.25ZM227.17,16.75h-6.36v-3.48h6.36v3.48ZM203.76,16.75v-3.48h16.28v3.48h-16.28ZM196.39,13.28h6.6v3.48h-6.59c0-1.21-.01-2.4-.02-3.48h0ZM223.44,21.51v3.53h-6.77v-3.53s6.77,0,6.77,0ZM227.17,20.75h-15.05v-3.24h15.05v3.24ZM92.81,29.3v-1.17s137.47,0,137.47,0v1.17s-137.47,0-137.47,0ZM103.23,42.52h16.31v3.32h-16.3v-3.32ZM96.03,42.52h6.44v3.32s-6.44,0-6.44,0v-3.32ZM110.83,38.54v3.23h-14.8v-3.23h14.8ZM96.03,34.31h6.44v3.48s-6.44,0-6.44,0v-3.48ZM110.84,33.55h-14.81v-3.42h14.8v3.42h.01ZM127.73,30.13v3.42s-16.13,0-16.13,0v-3.42h16.13ZM211.35,33.55h-15.79v-3.42h15.79v3.42h0ZM227.1,33.55h-15v-3.42h15v3.42ZM227.1,37.78h-6.32v-3.48s6.32,0,6.32,0v3.48ZM227.1,41.76h-15v-3.23h15v3.23ZM220.8,42.52h6.31v3.32h-6.3v-3.32s0,0,0,0ZM203.74,45.83v-3.32h16.3v3.32s-16.3,0-16.3,0ZM186.6,42.52v3.32h-16.31v-3.32h16.31ZM177.89,38.54v3.23h-7.6v-3.23h7.6ZM186.58,34.31v3.48h-16.28v-1.82s.03-.77-.28-1.65h16.56ZM162.08,30.81c1.44,1.18,4.46,1.59,4.86,1.64,2.68.58,2.59,3.35,2.59,3.48v14.06h-7.45v-19.18h0ZM153.11,35.94v1.85h-16.43v-3.48h16.7c-.3.87-.27,1.63-.27,1.63ZM153.11,41.76h-8.07v-3.23h8.07v3.23ZM153.11,45.83h-16.43v-3.32h16.43v3.32ZM135.92,42.52v3.32h-15.62v-3.32h15.62ZM144.28,38.54v3.23h-15.79v-3.23h15.79ZM135.92,34.31v3.48h-15.64v-3.48s15.64,0,15.64,0ZM144.28,30.13v3.42s-15.78,0-15.78,0v-3.42s15.78,0,15.78,0ZM153.72,33.55h-8.68v-3.42s15.92,0,15.92,0c-.87.83-3.12,1.39-4.66,1.58-1.36.29-2.13,1.05-2.58,1.84ZM167.07,31.7c-1.52-.19-3.76-.75-4.63-1.58h15.45v3.42s-8.21,0-8.21,0c-.45-.79-1.24-1.55-2.6-1.85ZM178.66,33.55v-3.42s16.13,0,16.13,0v3.42h-16.13ZM202.98,34.31v3.48h-15.64v-3.48h15.64ZM195.55,41.76v-3.23h15.79v3.23h-15.79ZM202.98,42.52v3.32h-15.62v-3.32h15.62ZM178.66,41.76v-3.23h16.14v3.23h-16.14ZM220.02,34.31v3.48s-16.28,0-16.28,0v-3.48h16.28,0ZM103.24,37.78v-3.48s16.28,0,16.28,0v3.48s-16.28,0-16.28,0ZM111.59,41.76v-3.23h16.14v3.23h-16.14ZM156.42,32.46c.43-.05,3.46-.46,4.9-1.65v19.18h-7.45v-14.08c0-.12-.1-2.88,2.55-3.46ZM227.87,45.85v-15.79h3.17l-.02-1.92h2.4v-7.32s-5.51-.02-5.51-.02v-11.52h3.24v-1.93h2.28V0h-9.93v4.26h-6.78l-.02-4.26h-9.93l-.02,4.26h-6.77V0l-9.98.04v7.32s2.39,0,2.39,0l-.02,1.92h3.29c-.08.98-.06,3.69,0,11.47h-5.64l-.04,4.29h-6.71v-4.26h-5.27v-11.49h3.24v-1.93h2.28V.02h-9.93v4.26h-6.78l-.02-4.26h-9.93l-.02,4.26h-6.77V.02l-9.98.04v7.32s2.39,0,2.39,0l-.02,1.92h3.29c-.08.98-.06,3.7,0,11.5l-5.91.02v4.22h-6.75v-4.26h-5.53v-11.49h3.24v-1.93h2.28V.02h-9.93v4.26h-6.78l-.02-4.26h-9.93l-.02,4.26h-6.77V.02l-9.98.04v7.32s2.39,0,2.39,0l-.02,1.92h3.29c-.08.98-.06,3.7,0,11.51l-5.65.02v7.32s2.37,0,2.37,0v1.5s.01.42.01.42h3.21v15.79h-5.63v5.02h143.81v-5.02h-5.61Z" fill="#1637a2"/>
    <circle cx="135.25" cy="138.09" r=".81" fill="#1637a2"/>
    <circle cx="142.74" cy="167.45" r=".61" fill="#1637a2"/>
    <path d="M161.57,253.76l-.65-1.45c-4.29-9.6-14.3-12.52-39.72-17.85-13.27-2.78-24.47-9.14-32.39-18.38-8.03-9.38-12.28-21.27-12.28-34.4V49.72h170.08v131.96c0,13.13-4.25,25.03-12.28,34.4-7.92,9.24-19.12,15.6-32.39,18.38-25.42,5.33-35.43,8.24-39.72,17.85l-.65,1.45ZM77.95,51.13v130.55c0,12.79,4.13,24.37,11.94,33.48,7.72,9,18.65,15.2,31.61,17.91,24.77,5.19,35.22,8.18,40.07,17.33,4.86-9.15,15.3-12.14,40.07-17.33,12.96-2.72,23.89-8.91,31.61-17.91,7.81-9.11,11.94-20.69,11.94-33.48V51.13H77.95Z" fill="#1637a2"/>
    <g>
      <path d="M169.8,156.43c-.22-.06-.44-.12-.65-.19-.43-.13-.83-.27-1.21-.42s-.71-.3-.99-.46h0c.32,1.09-5.84,5.16-7.89,5.88-.29.1-.56.17-.83.21-.09.02-.17.02-.26.03-.17.02-.33.04-.49.04-.03,0-.06,0-.08,0-.14,0-.28,0-.41-.02,0,0-.01,0-.02,0-.17-.02-.33-.04-.48-.07-.04,0-.08-.02-.12-.03-.11-.03-.21-.05-.31-.08-.03,0-.05-.01-.08-.02-.11-.04-.21-.07-.28-.11-.02,0-.03-.01-.05-.02-.06-.03-.11-.05-.14-.07-.02,0-.02-.01-.04-.02-.03-.02-.05-.03-.05-.03,0,0-.75.54-1.47,1.24h0c-.24.23-.47.47-.67.72-.08.1-.16.21-.23.31-.02.03-.04.06-.06.09-.05.07-.09.15-.13.22-.02.04-.03.07-.05.11-.03.07-.06.14-.08.21,0,.03-.02.06-.03.09-.02.1-.03.19-.03.28.18-.14.34-.27.49-.4.15-.13.29-.24.42-.35.02-.02.05-.04.07-.06.11-.09.22-.17.33-.25.03-.02.06-.04.08-.06.12-.08.25-.15.38-.21.01,0,.02-.01.04-.02,0,0,0,0,0,0,.42-.18.94-.29,1.73-.29.27,0,.57.01.91.04,2.87.21,6.53.98,6.53.98-.23-.18-.46-.34-.69-.5-.13-.09-.27-.17-.4-.26-.12-.07-.24-.15-.35-.22-.12-.07-.24-.13-.36-.2-.15-.08-.31-.15-.46-.22-.1-.04-.2-.09-.29-.13-.26-.1-.53-.2-.8-.27.31-.22.71-.46,1.16-.72,1.58-.9,3.85-1.96,5.88-2.82,2.04-.85,3.84-1.5,4.46-1.54-.22-.04-.44-.08-.67-.12-.45-.09-.9-.19-1.34-.31Z" fill="#1637a2" fill-rule="evenodd"/>
      <path d="M245.91,50.43H77.24v131.26c0,9.21,2.12,17.61,5.98,24.9-.03.04-.07.07-.1.11l-.16.19.12.22c7.45,13.83,21.02,23.42,38.21,27.03,25.55,5.35,35.62,8.3,39.97,18.05l.32.72.32-.72c4.35-9.75,14.42-12.7,39.97-18.05,17.19-3.6,30.76-13.2,38.21-27.03l.12-.22-.16-.19s-.07-.07-.1-.11c3.85-7.29,5.98-15.68,5.98-24.89V50.43ZM82.53,98.6c21.06-1.98,31.16-12.92,41.77-11.47,15.26,2.07,19.53,29.42,30.41,38.65,23.8-4.35,27.5-34.92,39.25-43.68,11.05-8.24,29.35-12.92,43.01-26.14.67,5.3-3.55,13.43-8.5,15.56,2.67,2.54-4.14,13.91-9.78,15.44,2.59,3.26-10.23,26.81-26.28,30.48,4.78,2.15,5.22,6.23-1.47,7.06,5.3,3.6,1.58,6.7-2.59,6.5,3.43,2.62.72,6.28-3.1,4.7,1.54,2.12-.4,5.17-3.75,2.96.99,1.93-.53,5.11-3.81,2.69.67,2.7-1.14,4.55-4.05,2.45-.93,5.5,26.5,27.79,34.51,38.48-6.57-3.26-13.47-5.83-20.59-7.66-2.06-4.77-7-12.43-12.01-16.05-.71-.51-1.37-.86-1.98-1.12l-1.7.12c-1.06.08-6.82,2.44-9.95,4.21.71.34,1.44.8,2.19,1.39l1.88,1.47c2.66.67,5.03,1.43,6.78,2.01.25.08.49.17.71.24-.45.19-.96.43-1.41.82l-.4.35.48.24c.73.36,1.44.75,2.14,1.16.16.09.3.19.46.29.54.33,1.09.67,1.61,1.03.12.08.23.17.35.25.56.39,1.11.78,1.65,1.19.05.04.11.09.16.13.6.46,1.19.93,1.76,1.4,2.17,1.8,4.18,3.7,6.06,5.5,3.01,2.86,5.67,5.4,8.15,6.61-2.57-.03-7.47-.81-9.74-3.84l-.37-.49-.24.56c-.89,2.08-2.81,3.17-4.06,3.56,1.12-2.6,1.31-7.15-2.52-10.38-1.91-1.6-7.17-4.36-10.35-2.12l-.3.21.22.29c.41.54.56,1.14.62,1.62-3.33-1.29-9.38-2.5-12.58-2.16l-.16.02-.82,1.19c-1.57-.34-2.61-.24-3.7-.14-.71.07-1.44.14-2.38.1-.87-.04-1.79-.44-2.72-.95-.45-.25-.9-.52-1.35-.79-1.75-1.06-3.55-2.16-5.07-1.45-.06-.11-.09-.25-.11-.4-.03-.35.06-.71.25-.91l.27-.29-.31-.24c-1.04-.79-1.75-1.86-1.78-2.66,0-.31.09-.55.28-.72.25-.21,1.21-.17,1.85-.15.69.02,1.28.05,1.63-.1.49-.2.98-.39,1.48-.57.18-.07.36-.12.55-.19.31-.11.62-.21.93-.31.23-.07.47-.14.7-.21.26-.07.52-.15.78-.21.27-.07.54-.14.81-.2.22-.05.44-.1.67-.15.31-.06.61-.13.92-.19.16-.03.32-.05.49-.08,1.32-.22,2.67-.37,4.05-.45h0c.7-1.13,2.09-2.19,2.62-2.57l.38-.26.4.23s.64.37,1.62.37c.47,0,.95-.08,1.42-.25,2.04-.71,6.97-4.14,7.42-5.13v-.07h0v-.43c-5.44-3.22-15.93-5.92-20.06-14.1-4.1,1.43-7.43-.71-10.88,2.14-1.43,1.18-1.64,4.37-1.85,8.24-2.38-.18-2.38-5.09-1.8-7.93-8.63-8.9,6.54-14.91,11.37-15.07-5.59-11.08-20.84-22.91-26.83-22.24-6,.67-12.27.56-14.01-2.51-2.66,1.22-4.81,1.78-6.98-.55-2.28.37-4.76.6-6.26-1.42-1.97-.25-5.31,0-6.4-2.89ZM201.72,233.42c-25.21,5.28-35.5,8.26-40.15,17.76-4.65-9.5-14.94-12.48-40.15-17.76-16.89-3.54-30.24-12.93-37.61-26.45,15.86-17.84,37.27-29.54,60.46-33.47,1.25.74,2.52,1.41,3.77,1.47.99.04,1.75-.03,2.48-.1,1.13-.11,2.12-.2,3.71.18l.24.06.91-1.32c3.24-.27,9.57,1.04,12.6,2.34l.52.22-.02-.56c-.02-.5-.06-1.39-.59-2.26,1.5-.85,3.46-.5,4.88-.04,1.77.58,3.48,1.6,4.32,2.31,4.33,3.65,2.87,8.69,2.02,10.17l-.35.61.7-.08c1.44-.17,3.86-1.39,5.07-3.62,3.29,3.71,10.29,3.94,11.63,3.53l1.21-.37-1.22-.32c-2.72-.7-5.78-3.62-9.33-7-1.6-1.53-3.29-3.13-5.1-4.69,22.1,4.37,42.41,15.83,57.62,32.94-7.37,13.52-20.72,22.91-37.61,26.45Z" fill="#1637a2" fill-rule="evenodd"/>
    </g>
  </g>
</svg>