<svg width="72" height="76" viewBox="0 0 72 76" fill="none" xmlns="http://www.w3.org/2000/svg">
<path d="M31.7266 40.4919H28.4939V16.4295L36.8692 8.21289L39.1532 10.4593L31.7266 17.7453V40.4919Z" fill="#006BA6"/>
<path d="M19.9977 40.4919H16.7663V11.5326L28.507 0L30.7909 2.24487L19.9977 12.8475V40.4919Z" fill="#006BA6"/>
<path d="M25.8457 40.492H22.6131V13.9731L32.6505 4.11328L34.9356 6.35823L25.8457 15.2885V40.492Z" fill="#006BA6"/>
<path d="M55.1655 40.492H51.9342V19.2759L42.9605 10.4612L45.2457 8.21643L55.1655 17.9613V40.492Z" fill="#006BA6"/>
<path d="M49.3011 40.492H46.0698V21.7845L38.7264 14.5721L41.0115 12.327L49.3011 20.4693V40.492Z" fill="#006BA6"/>
<path d="M36.7977 16.4417L34.5124 18.6864L40.2065 24.279V37.3108H34.3584V40.4919H43.4378V22.9644L36.7977 16.4417Z" fill="#006BA6"/>
<path d="M11.348 61.3784H8.73966V56.207L6.40747 59.7404V59.7554H4.95575V59.7404L2.61068 56.1764L2.62601 61.3784H0.016386V51.0658H1.96181L5.68225 56.5714L9.40255 51.0658H11.348V61.3784Z" fill="#006BA6"/>
<path d="M23.8997 56.5714C23.8997 59.7704 22.0165 61.6063 19.0062 61.6063C16.011 61.6063 14.1279 59.7704 14.1279 56.5714V51.0658H16.7516V56.6165C16.7516 58.1937 17.6321 59.2099 19.0062 59.2099C20.3804 59.2099 21.276 58.1937 21.276 56.6165V51.0658H23.8997V56.5714Z" fill="#006BA6"/>
<path d="M35.3723 61.3784H26.2777V60.1646L31.4815 53.3252H26.5398V51.0658H35.2783V52.2796L30.2919 59.1192H35.3723V61.3784Z" fill="#006BA6"/>
<path d="M40.5278 55.1759H45.1898V57.3594H40.5278V59.1491H45.854V61.3784H37.9184V51.0658H45.854V53.2949H40.5278V55.1759Z" fill="#006BA6"/>
<path d="M57.8814 56.5714C57.8814 59.7704 55.9983 61.6063 52.988 61.6063C49.9916 61.6063 48.1098 59.7704 48.1098 56.5714V51.0658H50.7335V56.6165C50.7335 58.1937 51.6138 59.2099 52.988 59.2099C54.3608 59.2099 55.2565 58.1937 55.2565 56.6165V51.0658H57.8814V56.5714Z" fill="#006BA6"/>
<path d="M71.993 61.3784H69.3845V56.207L67.0525 59.7404V59.7554H65.6019V59.7404L63.2544 56.1764L63.2697 61.3784H60.6614V51.0658H62.6056L66.3271 56.5714L70.0476 51.0658H71.993V61.3784Z" fill="#006BA6"/>
<path d="M9.07815 68.6597H6.45329C6.31465 67.8868 5.82089 67.3554 4.75481 67.3554C3.85901 67.3554 3.25727 67.7199 3.25727 68.3872C3.25727 68.9485 3.67332 69.1904 4.4609 69.3577L5.92787 69.6915C7.8427 70.1007 9.0934 70.8595 9.0934 72.6336C9.0934 74.696 7.36435 75.9851 4.73956 75.9851C2.37687 75.9851 0.246842 74.8933 0 72.3454H2.60954C2.77874 73.2554 3.58166 73.8009 4.81711 73.8009C5.78917 73.8009 6.2981 73.4529 6.2981 72.8916C6.2981 72.5424 6.08306 72.1786 5.18734 72.0117L3.45821 71.6324C1.38941 71.193 0.417358 70.237 0.417358 68.5998C0.417358 66.5367 2.1147 65.2328 4.58438 65.2328C6.28285 65.2328 8.81491 65.8846 9.07815 68.6597Z" fill="#006BA6"/>
<path d="M22.9276 70.6162C22.9276 73.6184 20.5343 75.985 17.3688 75.985C14.2034 75.985 11.8111 73.6184 11.8111 70.6162C11.8111 67.614 14.2043 65.2482 17.3688 65.2482C20.5333 65.2482 22.9276 67.6135 22.9276 70.6162ZM20.2875 70.6162C20.2875 68.9938 19.0674 67.6287 17.3688 67.6287C15.6702 67.6287 14.4513 68.9938 14.4513 70.6162C14.4513 72.2397 15.6702 73.604 17.3688 73.604C19.0675 73.604 20.2875 72.2397 20.2875 70.6162Z" fill="#006BA6"/>
<path d="M30.3377 65.4602C33.0859 65.4602 34.7845 66.9162 34.7845 69.2358C34.7845 71.6476 32.9931 73.1491 30.1379 73.1491H28.7168V75.7731H26.1085V65.4602H30.3377ZM30.2919 70.9046C31.4345 70.9046 32.1914 70.2527 32.1914 69.2358C32.1914 68.3115 31.4345 67.7199 30.2919 67.7199H28.7168V70.9046H30.2919Z" fill="#006BA6"/>
<path d="M48.4483 70.6162C48.4483 73.6184 46.0561 75.985 42.8905 75.985C39.7249 75.985 37.3329 73.6184 37.3329 70.6162C37.3329 67.614 39.7251 65.2482 42.8905 65.2482C46.056 65.2482 48.4483 67.6135 48.4483 70.6162ZM45.8081 70.6162C45.8081 68.9938 44.588 67.6287 42.8905 67.6287C41.192 67.6287 39.9718 68.9938 39.9718 70.6162C39.9718 72.2397 41.192 73.604 42.8905 73.604C44.588 73.604 45.8081 72.2397 45.8081 70.6162Z" fill="#006BA6"/>
<path d="M56.2298 67.7499V75.7731H53.6356V67.7499H50.2854V65.4602H59.5799V67.7499H56.2298Z" fill="#006BA6"/>
<path d="M72 70.9651C72 74.1653 70.118 76.0001 67.1064 76.0001C64.1115 76.0001 62.2284 74.1653 62.2284 70.9651V65.4602H64.8519V71.0112C64.8519 72.5878 65.7324 73.6041 67.1064 73.6041C68.4804 73.6041 69.3763 72.5878 69.3763 71.0112V65.4602H72V70.9651Z" fill="#006BA6"/>
</svg>
