<svg version="1" xmlns="http://www.w3.org/2000/svg" width="666.667" height="666.667" viewBox="0 0 500.000000 500.000000"><path d="M129.4 9.9c-4.2 2.6-7.2 6.6-8 10.7-.8 4.6-2 5.1-2.8 1.2C117 13.7 111 9 102.2 9c-9.8 0-16.8 8.4-15.9 19.2.7 8.4 4.2 13.7 19.5 29.7l13.7 14.4 13.9-14.4c10.5-10.8 14.6-15.8 16.7-20.4 5.5-11.6 3.1-22.6-6.1-27.3-5.4-2.7-10.5-2.8-14.6-.3z"/><path d="M40 34.6c0 5.8 2.4 17.4 5.2 25.2 13.8 38.1 55.9 59.9 95.2 49 15.3-4.2 31.7-14.7 40.2-25.6 2.1-2.8 4.1-5.1 4.4-5.1.3 0 2.2 2.2 4.2 4.9 4.8 6.2 15.2 14.8 22.9 19 24 12.7 50.7 12.9 75.2.3 7.6-3.9 10.9-6.4 18.7-14.3l9.5-9.5L325 88c7.8 7.9 11.1 10.4 18.7 14.3 13.4 6.9 22 9 37.3 9 10.6 0 13.8-.4 21.3-2.7 20.5-6.1 35.1-17.2 46.1-34.9 5.8-9.3 10.5-23.3 11.3-33.7l.6-8h-27.9l-1.6 8.5c-2.1 11.3-5.7 18.3-13.4 26.5-20 21.2-51.7 21.6-72.5.9-9.2-9.1-14.8-21.3-14.9-32.2V32h-29v3.7c0 10.5-6 23.3-15 32.3-30.2 30.2-81.2 12.2-86.5-30.4l-.7-5.6H171.1l-.6 4.7c-2.5 17.7-12.4 32.6-27.1 40.5-18.2 9.8-42 7-57.5-7C76.2 61.5 69 47.1 69 36.4V32H40v2.6zM366.7 140.6c-14.1 14.8-17.7 20.6-17.7 28.7 0 11.8 10.2 19.2 21.1 15.4 2.6-1 5.2-1.7 5.8-1.7 2 0 1.2 6.5-1.4 11.6-1.4 2.7-2.5 5-2.5 5.1 0 .2 4.1.3 9 .3 5 0 9-.1 9-.3 0-.1-1.1-2.4-2.5-5.1-2-4-3.5-12.6-2.2-12.6.1 0 2 .9 4.2 2 15.6 7.9 29-9.3 20-25.7-2.8-5.2-27.2-31.4-29-31.2-.5 0-6.8 6.1-13.8 13.5z"/><path d="M40 162.7c0 1.6.5 5.7 1.1 9.3 5.1 31.8 28.2 57 59.3 65 9.9 2.5 26.6 2.7 36.9.4 15.4-3.4 34.1-14.8 43.2-26.4 2.2-2.7 4.2-5 4.5-4.9.3 0 2.6 2.6 5.2 5.8 8.1 10.1 22.8 19.7 37.2 24.3 4.3 1.4 10.2 2.1 19.6 2.5 11.7.5 14.8.2 22-1.6 16.1-4 29-11.8 40.2-24l6.3-7 6.3 6.9c11.1 12.2 24.1 20 40.2 24.1 7.2 1.8 10.3 2.1 22 1.6 14.7-.6 20.8-2 32.1-7.6 24.2-11.9 41.6-37.2 43.6-63.4l.6-7.7h-28l-1.2 7.5c-5.7 34.9-43.4 53.7-74.5 37.2-14.5-7.7-26.5-26.2-26.6-41V160h-29v3.3c0 10-6.6 24.3-15.1 32.7-19.4 19.1-49.6 19.9-69.4 1.8-9.8-8.9-15.5-19.7-17-32.1l-.7-5.7H171.1l-.6 4.7c-1.9 13.3-6.3 22.4-15.4 31.3-16.1 15.8-37.7 19.3-58 9.4-16-7.9-28-25.6-28.1-41.7V160H40v2.7zM104.2 268.6c-8.5 10.2-15.5 19.1-15.8 19.8-.4 1.1 29.8 37.7 31.1 37.7.9.1 31.5-36.2 31.5-37.3 0-.7-25.6-32.3-30.4-37.5-.9-1-4.7 3.1-16.4 17.3z"/><path d="M40 290.2c0 7.6 4 22.1 8.4 31.1 20.7 42.3 71.6 57.1 113.1 32.9 3.3-2 9.9-7.5 14.8-12.3l8.7-8.8 8.8 8.8c10.2 10.3 18.8 15.7 32.1 20.1 27.3 9.2 58.5 1.9 79.5-18.4 2.9-2.8 6.4-6.6 7.7-8.4l2.5-3.2 3.9 5.2c5.8 7.6 15.8 15.4 26 20.3 11.2 5.4 18.4 7.4 30.2 8.2 38.6 2.5 73.2-23.1 82.3-61 1.1-4.5 2-10.3 2-13V287H432.3l-1.2 7c-3.7 22.8-21 39.7-43.6 42.9-25 3.6-49.6-13-56-37.6-.8-3.1-1.5-7.2-1.5-9V287h-29v3.3c0 4.9-2.7 14.4-5.8 20.1-3.8 7.2-14.5 17.7-21.7 21.3-31.1 15.6-68.1-3.1-73.6-37.2l-1.2-7.5h-27.6l-.6 3.7c-2.1 13.6-6.5 23.1-14.4 31.2-19.7 20.3-51.1 20.7-71.6 1.1-9-8.7-15.5-22.2-15.5-32.2V287H40v3.2zM375.4 386c-7.2 1-12 5.5-13 12.1-.4 2.6.2 4.8 2.4 9l2.9 5.6-3.8-1c-8-2-14.3 1.6-16.9 9.6-2.7 8.4 1.3 17.1 9.5 20.8 5.5 2.5 9.3 2.4 14.9-.6 2.6-1.4 4.9-2.5 5.2-2.5 1.4 0 0 8.4-2.1 12.4l-2.4 4.6h8.9c5 0 9-.2 9-.4s-1.1-2.8-2.5-5.8c-2.3-5-3.3-10.8-1.8-10.8.4 0 2.7 1 5.2 2.2 12.9 6.2 24.1-.8 24.1-15 0-10-6.2-15.7-16.3-14.9l-5.7.5 2.1-3.5c7.5-12-3.7-24.6-19.7-22.3z"/><path d="M40.4 421c1.3 12.8 7 28.5 13.9 38.4 7.2 10.4 20.1 21.1 32 26.7 14.5 6.7 34.9 8.9 51 5.3 15.4-3.4 34.1-14.8 43.2-26.4 2.2-2.7 4.2-5 4.5-4.9.3 0 2.6 2.6 5.2 5.8 8.1 10.2 22.8 19.7 37.2 24.3 7.9 2.6 29 3.6 37.8 1.8 16.3-3.1 32.1-12 43.5-24.5l6.8-7.4 6.3 6.9c15.7 17.3 35.3 26 58.6 26 22.5 0 41.2-7.6 56.6-23 13-13 21.3-30.7 22.7-48.3l.6-7.7h-28l-1.2 7.5c-5.7 34.9-43.4 53.7-74.5 37.2-14.5-7.7-26.5-26.2-26.6-41V414h-29v3.3c0 1.8-.7 5.9-1.5 9.2-7 26.8-34.9 43.7-61 37-20.9-5.4-36.4-22.7-39-43.8l-.7-5.7H171.1l-.6 4.7c-1.9 13.3-6.3 22.4-15.4 31.3-16.1 15.8-37.7 19.3-58 9.4-16-7.9-28-25.6-28.1-41.7V414H39.7l.7 7z"/></svg>